<svg width="18" height="18" viewBox="0 0 18 18" fill="none" xmlns="http://www.w3.org/2000/svg">
    <path
        d="M5.625 6L6.375 5.625V8.625M13.125 7.03125C14.0199 7.38179 14.7644 8.03372 15.23 8.87454C15.6956 9.71535 15.8531 10.6923 15.6753 11.6369C15.4975 12.5814 14.9955 13.4342 14.2561 14.0482C13.5167 14.6622 12.5861 14.9988 11.625 15C10.278 15 9.0825 14.355 8.32875 13.356M10.5 7.125C10.5 8.21902 10.0654 9.26823 9.29182 10.0418C8.51823 10.8154 7.46902 11.25 6.375 11.25C5.28098 11.25 4.23177 10.8154 3.45818 10.0418C2.6846 9.26823 2.25 8.21902 2.25 7.125C2.25 6.03098 2.6846 4.98177 3.45818 4.20818C4.23177 3.4346 5.28098 3 6.375 3C7.46902 3 8.51823 3.4346 9.29182 4.20818C10.0654 4.98177 10.5 6.03098 10.5 7.125Z"
        stroke="black" stroke-width="1.5" stroke-linecap="round" stroke-linejoin="round" />
</svg>