<svg width="13" height="12" viewBox="0 0 13 12" fill="none" xmlns="http://www.w3.org/2000/svg">
    <path fill-rule="evenodd" clip-rule="evenodd"
        d="M6.00533 0.0639992C5.73213 0.0639992 5.51066 0.285469 5.51066 0.558666V5.01067H1.05866C0.785465 5.01067 0.563995 5.23214 0.563995 5.50533V6.49467C0.563995 6.76786 0.785465 6.98933 1.05866 6.98933H5.51066V11.4413C5.51066 11.7145 5.73213 11.936 6.00533 11.936H6.99466C7.26786 11.936 7.48933 11.7145 7.48933 11.4413V6.98933H11.9413C12.2145 6.98933 12.436 6.76786 12.436 6.49467V5.50533C12.436 5.23214 12.2145 5.01067 11.9413 5.01067H7.48933V0.558665C7.48933 0.285469 7.26786 0.0639992 6.99466 0.0639992H6.00533Z"
        fill="#21201F" />
</svg>