<svg width="24" height="24" viewBox="0 0 24 24" fill="none" xmlns="http://www.w3.org/2000/svg">
    <path fill-rule="evenodd" clip-rule="evenodd"
        d="M14.616 3.10799L11.727 1.37549L8.83805 3.10799L5.48255 3.40499L4.16255 6.50399L1.62305 8.71649L2.37755 12L1.62305 15.2835L4.16255 17.496L5.48255 20.595L8.83805 20.892L11.727 22.6245L14.616 20.892L17.9715 20.595L19.2915 17.496L21.8325 15.2835L21.075 12L21.831 8.71649L19.29 6.50399L17.97 3.40499L14.616 3.10799ZM8.25005 9.74999C8.25005 9.55108 8.32906 9.36031 8.46972 9.21966C8.61037 9.07901 8.80114 8.99999 9.00005 8.99999C9.19896 8.99999 9.38972 9.07901 9.53038 9.21966C9.67103 9.36031 9.75005 9.55108 9.75005 9.74999C9.75005 9.9489 9.67103 10.1397 9.53038 10.2803C9.38972 10.421 9.19896 10.5 9.00005 10.5C8.80114 10.5 8.61037 10.421 8.46972 10.2803C8.32906 10.1397 8.25005 9.9489 8.25005 9.74999ZM9.00005 7.49999C8.40331 7.49999 7.83101 7.73704 7.40906 8.159C6.9871 8.58096 6.75005 9.15325 6.75005 9.74999C6.75005 10.3467 6.9871 10.919 7.40906 11.341C7.83101 11.7629 8.40331 12 9.00005 12C9.59678 12 10.1691 11.7629 10.591 11.341C11.013 10.919 11.25 10.3467 11.25 9.74999C11.25 9.15325 11.013 8.58096 10.591 8.159C10.1691 7.73704 9.59678 7.49999 9.00005 7.49999ZM8.78105 16.281L16.281 8.78099L15.219 7.71899L7.71905 15.219L8.78105 16.281ZM14.25 15C14.25 14.8011 14.3291 14.6103 14.4697 14.4697C14.6104 14.329 14.8011 14.25 15 14.25C15.199 14.25 15.3897 14.329 15.5304 14.4697C15.671 14.6103 15.75 14.8011 15.75 15C15.75 15.1989 15.671 15.3897 15.5304 15.5303C15.3897 15.671 15.199 15.75 15 15.75C14.8011 15.75 14.6104 15.671 14.4697 15.5303C14.3291 15.3897 14.25 15.1989 14.25 15ZM15 12.75C14.4033 12.75 13.831 12.987 13.4091 13.409C12.9871 13.831 12.75 14.4033 12.75 15C12.75 15.5967 12.9871 16.169 13.4091 16.591C13.831 17.0129 14.4033 17.25 15 17.25C15.5968 17.25 16.1691 17.0129 16.591 16.591C17.013 16.169 17.25 15.5967 17.25 15C17.25 14.4033 17.013 13.831 16.591 13.409C16.1691 12.987 15.5968 12.75 15 12.75Z"
        fill="#FF8128" />
</svg>