<svg width="24" height="24" viewBox="0 0 24 24" fill="none" xmlns="http://www.w3.org/2000/svg">
    <path fill-rule="evenodd" clip-rule="evenodd"
        d="M7.25292 4.25501C7.67788 3.35541 8.34971 2.59509 9.19014 2.06262C10.0306 1.53014 11.005 1.24744 11.9999 1.24744C12.9948 1.24744 13.9693 1.53014 14.8097 2.06262C15.6501 2.59509 16.322 3.35541 16.7469 4.25501C18.0457 4.19744 19.3256 4.58168 20.3779 5.34505C21.4302 6.10842 22.1928 7.20585 22.5412 8.45832C22.8896 9.71079 22.8033 11.0444 22.2964 12.2415C21.7895 13.4386 20.8918 14.4286 19.7499 15.05V18.052C19.7499 18.951 19.7499 19.7 19.6699 20.294C19.5859 20.922 19.3999 21.489 18.9439 21.944C18.4889 22.4 17.9219 22.586 17.2939 22.67C16.6999 22.75 15.9499 22.75 15.0519 22.75H8.94793C8.04992 22.75 7.29992 22.75 6.70592 22.67C6.07792 22.586 5.51093 22.4 5.05593 21.944C4.59993 21.489 4.41393 20.922 4.32993 20.294C4.24993 19.7 4.24993 18.951 4.24993 18.052V15.051C3.10802 14.4296 2.21038 13.4396 1.70345 12.2425C1.19652 11.0454 1.11023 9.71179 1.45865 8.45932C1.80706 7.20685 2.56963 6.10942 3.62193 5.34605C4.67424 4.58268 5.95417 4.19744 7.25292 4.25501ZM6.80293 5.75601C5.84431 5.80031 4.92891 6.16774 4.20569 6.79849C3.48246 7.42924 2.99399 8.28619 2.81977 9.22988C2.64555 10.1736 2.79582 11.1484 3.24615 11.9958C3.69647 12.8433 4.42033 13.5133 5.29993 13.897C5.43361 13.9554 5.54739 14.0514 5.62731 14.1734C5.70724 14.2955 5.74985 14.4381 5.74993 14.584V17.25H18.2499V14.584C18.25 14.4381 18.2926 14.2955 18.3725 14.1734C18.4525 14.0514 18.5662 13.9554 18.6999 13.897C19.5792 13.513 20.3027 12.8428 20.7528 11.9954C21.2028 11.148 21.353 10.1732 21.1788 9.22968C21.0046 8.28613 20.5164 7.42925 19.7934 6.79839C19.0705 6.16753 18.1554 5.79981 17.1969 5.75501C17.2323 5.99834 17.2499 6.24667 17.2499 6.50001V7.00001C17.2499 7.19892 17.1709 7.38968 17.0303 7.53034C16.8896 7.67099 16.6988 7.75001 16.4999 7.75001C16.301 7.75001 16.1102 7.67099 15.9696 7.53034C15.8289 7.38968 15.7499 7.19892 15.7499 7.00001V6.50001C15.7505 6.0074 15.6538 5.51953 15.4655 5.06432C15.2773 4.60911 15.0011 4.19551 14.6527 3.84718C14.3044 3.49886 13.8908 3.22266 13.4356 3.03439C12.9804 2.84612 12.4925 2.74948 11.9999 2.75001C11.0054 2.75001 10.0515 3.14509 9.34827 3.84836C8.64501 4.55162 8.24993 5.50545 8.24993 6.50001V7.00001C8.24993 7.19892 8.17091 7.38968 8.03025 7.53034C7.8896 7.67099 7.69884 7.75001 7.49993 7.75001C7.30101 7.75001 7.11025 7.67099 6.96959 7.53034C6.82894 7.38968 6.74993 7.19892 6.74993 7.00001V6.50001C6.74993 6.24667 6.76759 5.99934 6.80293 5.75601ZM18.2479 18.75H5.75192C5.75593 19.32 5.76993 19.75 5.81693 20.095C5.87892 20.556 5.98593 20.754 6.11693 20.884C6.24793 21.014 6.44393 21.121 6.90493 21.184C7.38793 21.248 8.03592 21.25 8.99993 21.25H14.9999C15.9639 21.25 16.6119 21.248 17.0949 21.183C17.5559 21.121 17.7539 21.014 17.8839 20.883C18.0139 20.752 18.1209 20.556 18.1839 20.095C18.2299 19.749 18.2439 19.319 18.2479 18.75Z"
        fill="#fff" />
</svg>