<svg width="20" height="20" viewBox="0 0 20 20" fill="none" xmlns="http://www.w3.org/2000/svg">
<path fill-rule="evenodd" clip-rule="evenodd" d="M3.33333 9.16667C3.33333 5.95083 5.95083 3.33333 9.16667 3.33333C12.3825 3.33333 15 5.95083 15 9.16667C15 12.3825 12.3825 15 9.16667 15C5.95083 15 3.33333 12.3825 3.33333 9.16667ZM18.3333 18.3333C18.6587 18.0079 18.6587 17.4804 18.3333 17.155L15.0208 13.8425C16.0483 12.5592 16.6667 10.935 16.6667 9.16666C16.6667 5.03082 13.3025 1.66666 9.16666 1.66666C5.03082 1.66666 1.66666 5.03082 1.66666 9.16666C1.66666 13.3025 5.03082 16.6667 9.16666 16.6667C10.935 16.6667 12.5592 16.0483 13.8425 15.0208L17.155 18.3333C17.4804 18.6587 18.0079 18.6587 18.3333 18.3333Z" fill="#111111"/>
</svg>
