<svg width="25" height="24" viewBox="0 0 25 24" fill="none" xmlns="http://www.w3.org/2000/svg">
    <path
        d="M2.70901 2.751C2.77494 2.56338 2.91269 2.40963 3.09197 2.32356C3.27125 2.23748 3.47737 2.22613 3.66501 2.292L3.96701 2.398C4.58301 2.615 5.10701 2.799 5.51901 3.001C5.95901 3.218 6.33801 3.484 6.62201 3.9C6.90401 4.312 7.02001 4.765 7.07401 5.262C7.09734 5.484 7.11168 5.73 7.11701 6H17.756C19.441 6 20.957 6 21.401 6.577C21.845 7.154 21.671 8.024 21.325 9.763L20.825 12.188C20.51 13.716 20.352 14.481 19.8 14.93C19.249 15.38 18.468 15.38 16.907 15.38H11.605C8.81601 15.38 7.42201 15.38 6.55501 14.466C5.68801 13.552 5.62501 12.582 5.62501 9.64V7.038C5.62501 6.298 5.62501 5.803 5.58401 5.423C5.54401 5.06 5.47401 4.878 5.38401 4.746C5.29601 4.617 5.16301 4.496 4.85901 4.348C4.53701 4.19 4.09801 4.034 3.43001 3.799L3.16901 3.708C3.07599 3.67536 2.99032 3.6247 2.9169 3.55892C2.84348 3.49314 2.78375 3.41354 2.74112 3.32466C2.69849 3.23577 2.6738 3.13936 2.66846 3.04093C2.66312 2.94249 2.67624 2.84397 2.70901 2.751ZM8.12501 18C8.52283 18 8.90436 18.158 9.18567 18.4393C9.46697 18.7206 9.62501 19.1022 9.62501 19.5C9.62501 19.8978 9.46697 20.2794 9.18567 20.5607C8.90436 20.842 8.52283 21 8.12501 21C7.72718 21 7.34565 20.842 7.06435 20.5607C6.78304 20.2794 6.62501 19.8978 6.62501 19.5C6.62501 19.1022 6.78304 18.7206 7.06435 18.4393C7.34565 18.158 7.72718 18 8.12501 18ZM17.125 18C17.5228 18 17.9044 18.158 18.1857 18.4393C18.467 18.7206 18.625 19.1022 18.625 19.5C18.625 19.8978 18.467 20.2794 18.1857 20.5607C17.9044 20.842 17.5228 21 17.125 21C16.7272 21 16.3457 20.842 16.0643 20.5607C15.783 20.2794 15.625 19.8978 15.625 19.5C15.625 19.1022 15.783 18.7206 16.0643 18.4393C16.3457 18.158 16.7272 18 17.125 18Z"
        fill="#5B5B5B" />
</svg>