<svg width="25" height="24" viewBox="0 0 25 24" fill="none" xmlns="http://www.w3.org/2000/svg">
    <path fill-rule="evenodd" clip-rule="evenodd"
        d="M5.454 5.06899C9.249 1.27899 15.419 1.31899 19.237 5.13799C23.057 8.95799 23.097 15.131 19.301 18.926C15.505 22.721 9.333 22.682 5.513 18.862C4.43838 17.792 3.62644 16.4875 3.14096 15.0508C2.65548 13.6141 2.50968 12.0845 2.715 10.582C2.74192 10.3848 2.84607 10.2064 3.00454 10.086C3.16301 9.96559 3.36282 9.91307 3.56 9.93999C3.75719 9.96691 3.93561 10.0711 4.05601 10.2295C4.17641 10.388 4.22892 10.5878 4.202 10.785C4.02769 12.0583 4.15108 13.3547 4.56249 14.5723C4.9739 15.7898 5.6621 16.8954 6.573 17.802C9.818 21.046 15.041 21.065 18.241 17.866C21.44 14.666 21.421 9.44299 18.177 6.19799C14.934 2.95599 9.714 2.93499 6.514 6.12999L7.262 6.13299C7.3605 6.13345 7.45793 6.1533 7.54875 6.19142C7.63957 6.22954 7.72199 6.28517 7.79131 6.35514C7.86063 6.42511 7.91549 6.50804 7.95275 6.59921C7.99002 6.69038 8.00896 6.788 8.0085 6.88649C8.00804 6.98498 7.98819 7.08242 7.95007 7.17324C7.91196 7.26406 7.85633 7.34648 7.78636 7.4158C7.71639 7.48511 7.63345 7.53997 7.54228 7.57724C7.45111 7.61451 7.3535 7.63345 7.255 7.63299L4.709 7.62099C4.5113 7.61994 4.32202 7.54087 4.18231 7.40098C4.04261 7.26109 3.96379 7.07169 3.963 6.87399L3.95 4.32999C3.94948 4.2315 3.96836 4.13387 4.00556 4.04267C4.04277 3.95148 4.09757 3.8685 4.16685 3.79849C4.23612 3.72847 4.3185 3.67279 4.4093 3.63461C4.50009 3.59644 4.59751 3.57652 4.696 3.57599C4.7945 3.57547 4.89213 3.59434 4.98332 3.63155C5.07452 3.66876 5.15749 3.72356 5.22751 3.79283C5.29752 3.8621 5.35321 3.94449 5.39138 4.03528C5.42956 4.12608 5.44948 4.2235 5.45 4.32199L5.454 5.06899ZM12.374 7.24899C12.5729 7.24899 12.7637 7.32801 12.9043 7.46866C13.045 7.60931 13.124 7.80008 13.124 7.99899V11.689L15.405 13.969C15.4767 14.0381 15.5338 14.1209 15.5732 14.2124C15.6125 14.3038 15.6333 14.4022 15.6342 14.5018C15.6351 14.6014 15.6162 14.7002 15.5785 14.7924C15.5408 14.8846 15.4852 14.9683 15.4148 15.0388C15.3444 15.1092 15.2607 15.165 15.1685 15.2027C15.0764 15.2405 14.9776 15.2595 14.8781 15.2587C14.7785 15.2579 14.6801 15.2372 14.5885 15.198C14.497 15.1587 14.4142 15.1016 14.345 15.03L11.625 12.31V7.99999C11.625 7.80108 11.704 7.61031 11.8447 7.46966C11.9853 7.32901 12.1761 7.24999 12.375 7.24999"
        fill="#5B5B5B" />
</svg>