<svg width="25" height="24" viewBox="0 0 25 24" fill="none" xmlns="http://www.w3.org/2000/svg">
    <path fill-rule="evenodd" clip-rule="evenodd"
        d="M3.395 7.823C2.875 8.77 2.875 9.915 2.875 12.203V13.725C2.875 17.625 2.875 19.576 4.047 20.788C5.219 22 7.104 22 10.875 22H14.875C18.646 22 20.532 22 21.703 20.788C22.874 19.576 22.875 17.626 22.875 13.725V12.204C22.875 9.915 22.875 8.771 22.355 7.823C21.837 6.874 20.888 6.286 18.991 5.108L16.991 3.867C14.986 2.622 13.983 2 12.875 2C11.767 2 10.765 2.622 8.759 3.867L6.759 5.108C4.862 6.286 3.914 6.874 3.395 7.823ZM12.125 18C12.125 18.1989 12.204 18.3897 12.3447 18.5303C12.4853 18.671 12.6761 18.75 12.875 18.75C13.0739 18.75 13.2647 18.671 13.4053 18.5303C13.546 18.3897 13.625 18.1989 13.625 18V15C13.625 14.8011 13.546 14.6103 13.4053 14.4697C13.2647 14.329 13.0739 14.25 12.875 14.25C12.6761 14.25 12.4853 14.329 12.3447 14.4697C12.204 14.6103 12.125 14.8011 12.125 15V18Z"
        fill="#5B5B5B" />
</svg>