<svg width="20" height="20" viewBox="0 0 20 20" fill="none" xmlns="http://www.w3.org/2000/svg">
    <path
        d="M9.99984 7.9165C14.6022 7.9165 18.3332 6.79722 18.3332 5.4165C18.3332 4.03579 14.6022 2.9165 9.99984 2.9165C5.39746 2.9165 1.6665 4.03579 1.6665 5.4165C1.6665 6.79722 5.39746 7.9165 9.99984 7.9165Z"
        stroke="#FF8128" stroke-width="1.5" />
    <path
        d="M9.99992 17.083C10.649 17.0877 11.2847 16.8979 11.8249 16.538C11.9448 16.4535 12.0301 16.3286 12.0652 16.1862C12.1003 16.0438 12.0827 15.8935 12.0158 15.763C11.7274 15.2147 11.1083 14.583 9.99992 14.583C8.89159 14.583 8.27242 15.2163 7.98409 15.7622C7.91713 15.8927 7.89957 16.0429 7.93464 16.1853C7.9697 16.3278 8.05503 16.4527 8.17492 16.5372C8.67492 16.8788 9.30992 17.083 9.99992 17.083Z"
        stroke="#FF8128" stroke-width="1.5" stroke-linejoin="round" />
    <path d="M10 14.5832V7.9165" stroke="#FF8128" stroke-width="1.5" stroke-linecap="round"
        stroke-linejoin="round" />
</svg>